<svg width="47" height="47" viewBox="0 0 47 47" fill="none" xmlns="http://www.w3.org/2000/svg">
<g clip-path="url(#clip0_11_21)">
<path d="M23.347 33.0749C28.7196 33.0749 33.0749 28.7196 33.0749 23.347C33.0749 17.9744 28.7196 13.6191 23.347 13.6191C17.9744 13.6191 13.6191 17.9744 13.6191 23.347C13.6191 28.7196 17.9744 33.0749 23.347 33.0749Z" fill="white"/>
<path d="M23.347 1.94556V5.83673M23.347 40.8573V44.7485M8.21035 8.21035L10.9731 10.9731M35.7209 35.7209L38.4837 38.4837M1.94556 23.347H5.83673M40.8573 23.347H44.7485M8.21035 38.4837L10.9731 35.7209M35.7209 10.9731L38.4837 8.21035M33.0749 23.347C33.0749 28.7196 28.7196 33.0749 23.347 33.0749C17.9744 33.0749 13.6191 28.7196 13.6191 23.347C13.6191 17.9744 17.9744 13.6191 23.347 13.6191C28.7196 13.6191 33.0749 17.9744 33.0749 23.347Z" stroke="white" stroke-width="3.89117" stroke-linecap="round" stroke-linejoin="round"/>
</g>
<defs>
<clipPath id="clip0_11_21">
<rect width="46.6941" height="46.6941" fill="white"/>
</clipPath>
</defs>
</svg>
